<?xml version="1.0" standalone="no"?>
<!DOCTYPE svg PUBLIC "-//W3C//DTD SVG 20010904//EN"
 "http://www.w3.org/TR/2001/REC-SVG-20010904/DTD/svg10.dtd">
<svg version="1.0" xmlns="http://www.w3.org/2000/svg"
 width="1481.000000pt" height="1286.000000pt" viewBox="0 0 1481.000000 1286.000000"
 preserveAspectRatio="xMidYMid meet">

<g transform="translate(0.000000,1286.000000) scale(0.100000,-0.100000)"
fill="#000000" stroke="none">
<path d="M986 2952 c-8 -15 -17 -49 -21 -75 l-7 -47 -30 25 c-37 31 -55 32
-69 1 l-11 -24 -44 45 c-43 46 -44 46 -96 40 -29 -4 -69 -7 -89 -7 l-37 0 -5
-67 c-2 -38 1 -97 9 -133 7 -36 20 -144 29 -240 9 -96 20 -202 25 -235 6 -33
7 -100 4 -150 -5 -65 -1 -131 14 -240 12 -82 24 -220 27 -305 3 -85 13 -193
21 -239 13 -77 13 -100 -1 -226 -9 -77 -27 -211 -40 -298 -32 -204 -33 -191
13 -182 51 9 60 21 13 17 l-38 -4 23 146 c44 286 58 451 45 524 -7 37 -19 168
-26 292 -8 124 -21 272 -30 330 -11 68 -14 128 -10 170 9 93 9 87 -3 175 -7
44 -19 155 -27 246 -9 91 -20 190 -24 221 -5 30 -7 82 -4 115 l6 61 66 4 c85
6 104 -2 143 -57 18 -25 34 -45 37 -45 3 0 13 17 22 38 l15 37 43 -42 c24 -24
44 -43 46 -43 1 0 5 30 9 68 4 37 13 77 20 90 l13 24 32 -27 c17 -15 40 -44
50 -63 16 -31 26 -38 70 -48 56 -12 61 -11 61 22 0 64 41 85 106 53 24 -11 44
-25 44 -30 0 -6 3 -8 8 -5 15 9 232 -14 329 -35 129 -28 171 -45 175 -72 2
-15 47 -46 171 -119 191 -110 243 -146 308 -215 47 -48 47 -49 73 -183 59
-306 62 -401 17 -520 -11 -30 -19 -55 -17 -57 9 -10 46 102 57 173 11 76 10
92 -26 315 l-38 234 -56 58 c-63 66 -160 133 -338 233 -68 38 -123 74 -123 80
0 7 -8 21 -17 33 -30 35 -240 85 -414 97 -71 4 -101 11 -123 26 -15 11 -45 22
-66 25 -32 5 -43 1 -64 -20 -14 -15 -26 -38 -26 -52 0 -47 -70 -24 -99 34 -19
36 -74 81 -99 81 -7 0 -18 -12 -26 -28z"/>
<path d="M8986 2952 c-8 -15 -17 -49 -21 -75 l-7 -47 -30 25 c-37 31 -55 32
-69 1 l-11 -24 -44 45 c-43 46 -44 46 -96 40 -29 -4 -69 -7 -89 -7 l-37 0 -5
-67 c-2 -38 1 -97 9 -133 7 -36 20 -144 29 -240 9 -96 20 -202 25 -235 6 -33
7 -100 4 -150 -5 -65 -1 -131 14 -240 12 -82 24 -220 27 -305 4 -85 13 -193
21 -240 13 -75 13 -100 -1 -225 -9 -77 -27 -211 -40 -298 -32 -204 -33 -191
13 -182 51 9 60 21 13 17 l-38 -4 23 146 c45 287 58 450 45 524 -7 37 -19 168
-26 292 -8 124 -21 272 -30 330 -11 68 -14 128 -10 170 9 93 9 87 -3 175 -7
44 -19 155 -27 246 -9 91 -20 190 -24 221 -5 30 -7 82 -4 115 l6 61 66 4 c85
6 104 -2 143 -57 18 -25 34 -45 37 -45 3 0 13 17 22 38 l15 37 43 -42 c24 -24
44 -43 46 -43 1 0 5 30 9 68 4 37 13 77 20 90 l13 24 32 -27 c17 -15 40 -44
50 -63 16 -31 26 -38 70 -48 56 -12 61 -11 61 22 0 64 41 85 106 53 24 -11 44
-25 44 -30 0 -6 3 -8 8 -5 15 9 232 -14 329 -35 129 -28 170 -45 177 -73 4
-17 46 -47 158 -111 181 -104 257 -156 320 -222 44 -46 47 -53 67 -153 49
-247 61 -348 51 -423 -5 -40 -12 -83 -16 -97 -4 -18 -3 -21 4 -10 15 23 34
166 28 208 -3 20 -20 127 -37 237 l-32 200 -56 58 c-63 66 -160 133 -338 233
-68 38 -123 74 -123 80 0 7 -8 21 -17 33 -30 35 -240 85 -414 97 -71 4 -101
11 -123 26 -15 11 -45 22 -66 25 -32 5 -43 1 -64 -20 -14 -15 -26 -38 -26 -52
0 -47 -70 -24 -99 34 -19 36 -74 81 -99 81 -7 0 -18 -12 -26 -28z"/>
<path d="M12949 2902 c-19 -21 -39 -47 -46 -58 -11 -18 -12 -17 -23 14 -23 63
-93 72 -137 18 -27 -34 -28 -35 -88 -29 l-61 6 -57 -88 c-62 -96 -175 -313
-200 -385 -9 -25 -34 -115 -57 -200 -48 -181 -119 -397 -195 -595 -35 -90 -60
-175 -70 -240 -20 -116 -36 -170 -98 -319 -47 -112 -79 -156 -128 -176 -16 -7
-29 -16 -29 -21 0 -4 -26 -43 -59 -86 -74 -99 -88 -127 -99 -197 l-9 -56 66 2
c60 1 62 2 16 5 -27 2 -54 8 -59 13 -4 4 -1 33 8 63 19 64 147 241 195 270 45
26 68 65 127 211 39 94 61 169 80 266 18 90 44 179 79 270 68 175 133 374 195
602 41 147 64 210 120 323 37 77 95 178 127 225 55 80 60 85 93 84 19 0 46 -3
60 -7 21 -6 29 -1 52 33 20 28 35 40 52 40 26 0 56 -23 56 -44 0 -13 38 -52
43 -45 2 2 14 21 26 41 24 41 66 78 87 78 7 0 26 -11 42 -25 29 -24 30 -28 25
-84 -5 -55 -4 -58 18 -64 41 -11 72 -8 91 10 16 15 25 15 64 5 59 -16 99 -15
113 2 19 23 66 29 98 12 34 -17 82 -68 111 -116 43 -72 175 -582 292 -1124 46
-217 62 -269 164 -550 150 -409 159 -441 146 -481 -8 -23 -20 -36 -43 -43
l-32 -12 35 5 c96 14 88 58 -114 605 -78 211 -94 265 -152 530 -113 517 -236
995 -276 1073 -10 21 -35 56 -55 78 -65 72 -118 86 -180 48 -30 -19 -39 -20
-72 -10 -53 15 -96 14 -111 -5 -9 -10 -26 -14 -49 -12 -39 3 -39 4 -27 74 7
37 4 43 -25 72 -47 46 -86 44 -130 -6z"/>
<path d="M2867 2883 c-2 -5 -7 -25 -11 -45 -4 -21 -11 -40 -16 -43 -5 -3 -33
8 -62 24 -29 17 -72 33 -96 37 -37 6 -46 3 -68 -17 l-25 -23 0 -236 c1 -529 2
-630 11 -730 30 -330 34 -445 21 -665 -6 -121 -18 -265 -24 -320 -7 -55 -10
-115 -6 -134 7 -33 59 -98 59 -73 0 6 -5 12 -10 12 -6 0 -18 16 -27 35 -15 31
-15 47 -5 137 35 301 40 691 13 903 -17 134 -31 573 -19 603 6 16 10 109 9
236 -2 183 0 211 15 227 25 28 73 23 143 -13 73 -37 90 -33 107 28 8 30 16 40
35 42 37 4 77 -32 89 -81 6 -23 15 -53 21 -66 l10 -24 152 7 c178 8 430 22
573 32 94 6 105 5 143 -16 l41 -23 112 21 c62 12 124 22 138 22 60 0 68 -59
15 -110 -19 -18 -32 -37 -29 -42 3 -4 10 -6 15 -2 5 3 21 -2 34 -10 35 -23 32
-60 -7 -98 -19 -17 -24 -26 -13 -20 29 14 51 43 59 74 5 21 0 31 -24 51 -26
22 -27 27 -14 38 8 7 22 25 30 41 18 35 3 74 -38 97 -24 14 -35 13 -120 -7
-117 -27 -155 -29 -193 -10 -51 26 -99 29 -227 14 -122 -15 -393 -29 -558 -30
l-84 -1 -12 50 c-13 61 -30 90 -61 104 -27 13 -90 15 -96 4z"/>
<path d="M5835 2868 c-47 -5 -354 -7 -739 -4 -598 5 -661 4 -686 -11 -23 -13
-31 -30 -49 -102 -18 -71 -20 -92 -10 -119 11 -31 9 -36 -18 -65 -38 -41 -45
-59 -32 -96 11 -30 47 -61 71 -61 7 1 1 7 -14 16 -58 31 -63 83 -12 135 35 36
36 38 23 73 -11 31 -10 44 11 111 16 50 31 80 44 87 14 8 224 10 691 9 465 -2
705 1 784 10 100 10 123 10 197 -6 47 -10 87 -21 90 -26 2 -4 -2 -25 -11 -45
-20 -49 -20 -51 15 -57 26 -6 30 -11 30 -37 0 -39 -24 -86 -50 -100 -23 -12
-27 -40 -5 -40 37 0 36 -61 -2 -103 -9 -9 -14 -20 -10 -23 3 -3 18 12 32 35
31 47 28 87 -7 100 -22 8 -22 8 4 25 33 22 58 73 58 120 0 32 -3 36 -26 36
-24 0 -25 3 -18 28 4 15 8 40 8 57 1 28 -1 30 -69 46 -77 19 -178 21 -300 7z"/>
<path d="M7370 2860 c-36 -10 -110 -35 -164 -55 l-99 -36 -31 30 c-48 46 -71
47 -153 7 -40 -19 -99 -53 -131 -75 -87 -59 -291 -265 -352 -355 -112 -168
-194 -394 -230 -638 -10 -68 -9 -81 6 -110 14 -26 18 -61 19 -163 1 -108 5
-138 22 -176 11 -26 26 -49 32 -53 6 -4 -1 17 -14 46 -22 47 -25 67 -25 170 0
81 -5 132 -16 165 -18 53 -15 109 16 258 57 275 165 472 364 669 128 126 204
185 298 232 87 44 119 44 154 0 l27 -33 166 55 c119 39 187 56 241 59 71 5 77
4 107 -21 23 -19 66 -36 145 -56 195 -49 341 -123 488 -245 93 -78 149 -155
157 -216 3 -24 20 -96 38 -159 79 -278 115 -501 115 -715 0 -119 -4 -151 -35
-282 -19 -81 -42 -165 -50 -186 -20 -49 -19 -72 1 -27 9 19 34 107 56 195 38
152 40 168 40 310 0 217 -35 441 -108 696 -19 66 -34 136 -34 154 0 127 -218
328 -473 437 -39 17 -123 43 -186 59 -83 21 -121 35 -141 54 -24 23 -34 25
-106 24 -45 0 -107 -8 -144 -19z"/>
<path d="M11218 2838 c-8 -13 -25 -43 -38 -68 l-22 -44 -19 22 c-22 27 -78 52
-118 52 -33 0 -36 -7 -74 -160 -22 -90 -45 -79 -76 36 -14 53 -41 87 -88 109
-36 17 -37 17 -55 -5 -10 -12 -25 -47 -34 -76 l-16 -54 -29 24 c-33 28 -86 43
-101 28 -19 -19 -20 -96 -3 -262 20 -204 30 -613 18 -740 -5 -52 -6 -129 -2
-170 5 -41 9 -235 9 -431 l1 -357 29 -4 c16 -2 27 -1 24 4 -3 4 -13 8 -23 8
-18 0 -19 16 -18 293 1 753 -4 1068 -19 1314 -9 143 -14 277 -10 296 6 34 8
35 39 26 34 -9 77 -51 77 -75 0 -27 18 -14 25 19 12 58 36 125 49 137 10 8 21
7 40 -1 32 -15 52 -46 77 -116 22 -65 35 -83 59 -83 19 0 31 27 67 145 17 58
19 60 54 63 52 4 89 -28 89 -79 0 -49 17 -50 36 -1 20 52 42 93 63 121 28 37
67 22 92 -34 11 -25 23 -45 26 -45 3 0 16 11 29 25 15 16 34 25 53 25 28 0 30
-3 41 -55 10 -48 8 -76 -20 -237 -32 -189 -49 -368 -50 -523 0 -74 8 -122 44
-265 62 -249 106 -584 106 -816 0 -75 -2 -85 -27 -115 -23 -27 -24 -30 -6 -21
11 6 28 29 37 51 13 35 14 62 6 201 -18 300 -48 508 -102 707 -29 108 -32 133
-36 298 -4 203 7 316 49 525 25 124 28 152 19 199 -6 30 -14 59 -20 65 -15 15
-81 8 -101 -10 -17 -16 -19 -15 -28 10 -11 27 -64 66 -92 66 -9 0 -23 -10 -31
-22z"/>
<path d="M4226 2426 c21 -9 34 -24 38 -42 6 -24 3 -33 -23 -56 -36 -32 -26
-38 13 -7 15 12 26 30 26 45 0 29 -41 74 -67 74 -11 -1 -6 -6 13 -14z"/>
<path d="M6145 2331 c11 -4 53 -14 93 -21 61 -11 73 -17 78 -36 14 -55 -20
-85 -128 -110 l-63 -14 60 5 c33 3 80 16 105 28 37 18 46 28 48 53 2 16 -1 42
-7 56 -8 21 -18 26 -63 32 -123 15 -143 16 -123 7z"/>
<path d="M4241 2251 c39 -39 38 -65 -3 -79 l-33 -12 39 5 c21 2 40 6 42 8 9 9
-20 78 -39 92 -35 24 -38 17 -6 -14z"/>
<path d="M4379 2258 c-7 -13 -29 -39 -50 -59 -53 -49 -54 -88 -2 -124 21 -14
44 -25 53 -25 8 0 -4 11 -26 25 -23 14 -44 33 -47 44 -6 26 13 64 40 76 12 5
28 26 36 47 17 42 14 51 -4 16z"/>
<path d="M4237 2095 c36 -15 59 -54 49 -80 -3 -9 -19 -21 -36 -26 -43 -16 -39
-60 12 -116 27 -29 17 -69 -22 -91 -17 -9 -30 -21 -30 -25 0 -12 32 8 62 38
31 30 27 55 -17 107 -35 41 -32 65 10 82 29 13 35 20 35 46 0 37 -39 80 -72
80 -20 -1 -18 -3 9 -15z"/>
<path d="M9575 1866 c3 -27 5 -57 5 -67 0 -11 4 -19 8 -19 13 0 154 92 149 97
-3 2 -34 -15 -71 -38 -37 -23 -68 -40 -70 -38 -2 2 -8 29 -14 59 l-11 55 4
-49z"/>
<path d="M1575 1865 c3 -22 5 -50 5 -62 0 -13 4 -23 8 -23 13 0 154 92 149 97
-3 2 -30 -12 -61 -32 -80 -51 -86 -52 -87 -19 -1 16 -5 40 -10 54 -7 20 -8 17
-4 -15z"/>
<path d="M4751 1850 c0 -14 6 -86 15 -160 12 -110 14 -189 7 -435 -4 -165 -7
-310 -6 -323 2 -25 52 -117 59 -109 2 2 -7 25 -22 51 l-26 46 9 298 c7 256 6
320 -9 462 -19 172 -25 212 -27 170z"/>
<path d="M5603 1286 l0 -519 -23 -19 c-26 -21 -13 -25 15 -5 17 13 18 38 21
403 1 214 -1 450 -5 524 -5 86 -7 -52 -8 -384z"/>
<path d="M7656 1655 c-50 -149 -64 -171 -118 -186 -60 -16 -274 -4 -308 18
-14 9 -58 50 -99 91 l-73 76 5 49 c2 28 1 43 -4 35 -5 -7 -9 -32 -9 -55 0 -40
6 -48 88 -134 84 -88 90 -92 142 -100 107 -15 242 -10 286 10 38 17 44 26 72
98 31 79 66 202 60 209 -2 1 -21 -48 -42 -111z"/>
<path d="M12983 1593 c26 -2 68 -2 95 0 26 2 4 3 -48 3 -52 0 -74 -1 -47 -3z"/>
<path d="M4100 1547 c0 -4 9 -16 20 -27 22 -22 25 -42 10 -70 -7 -13 -7 -21 0
-25 5 -3 10 -22 10 -40 0 -28 -6 -37 -30 -50 -38 -19 -39 -29 -2 -13 48 21 54
29 47 67 -3 20 -5 54 -5 77 0 30 -5 46 -25 64 -14 13 -25 20 -25 17z"/>
<path d="M4035 1190 c-38 -4 -133 -11 -210 -16 -77 -5 -122 -10 -100 -11 22
-2 129 3 238 10 109 7 204 9 212 4 9 -5 15 -23 15 -47 l0 -40 41 0 c59 0 82
-15 74 -48 -11 -46 -58 -146 -74 -159 -13 -12 -13 -13 1 -13 17 0 98 154 98
188 0 28 -38 52 -84 54 -32 1 -36 4 -36 28 0 15 -8 34 -18 43 -20 18 -43 19
-157 7z"/>
<path d="M1664 875 c11 -44 26 -180 26 -235 0 -54 -2 -59 -32 -80 -18 -12 -24
-19 -13 -15 11 4 28 10 38 12 18 6 22 27 18 123 -2 68 -20 180 -33 200 -7 12
-8 10 -4 -5z"/>
<path d="M9664 875 c11 -44 26 -180 26 -233 0 -49 -3 -59 -27 -79 l-28 -22 33
12 c26 9 32 17 34 42 4 92 -14 253 -34 285 -7 12 -8 10 -4 -5z"/>
<path d="M4201 748 c-10 -30 -9 -31 4 -14 8 11 15 26 15 33 0 22 -8 14 -19
-19z"/>
</g>
</svg>
